<svg xmlns="http://www.w3.org/2000/svg" viewBox="0 0 512 512" width="100%" height="100%">
  <defs>
    <linearGradient id="bgGrad" x1="0%" y1="0%" x2="100%" y2="100%">
      <stop offset="0%" stop-color="#047857" />
      <stop offset="100%" stop-color="#10b981" />
    </linearGradient>
    <linearGradient id="sunGrad" x1="0%" y1="0%" x2="100%" y2="100%">
      <stop offset="0%" stop-color="#ffffff" />
      <stop offset="100%" stop-color="#d1fae5" />
    </linearGradient>
  </defs>

  <!-- Rounded Squircle Icon Badge -->
  <rect width="512" height="512" rx="128" fill="url(#bgGrad)" />

  <!-- Outer Sun Rays -->
  <g fill="none" stroke="#ffffff" stroke-width="28" stroke-linecap="round" opacity="0.95">
    <line x1="256" y1="96" x2="256" y2="128" />
    <line x1="256" y1="384" x2="256" y2="416" />
    <line x1="96" y1="256" x2="128" y2="256" />
    <line x1="384" y1="256" x2="416" y2="256" />
    
    <line x1="143" y1="143" x2="165" y2="165" />
    <line x1="347" y1="347" x2="369" y2="369" />
    <line x1="143" y1="369" x2="165" y2="347" />
    <line x1="347" y1="165" x2="369" y2="143" />
  </g>

  <!-- Sun Center Circle -->
  <circle cx="256" cy="256" r="92" fill="url(#sunGrad)" />

  <!-- Green Energy Leaf in Sun Center -->
  <path d="M256 195 C295 195 316 228 316 265 C316 298 288 317 256 317 C224 317 196 298 196 265 C196 228 217 195 256 195 Z" fill="#047857" />
  <path d="M256 215 L256 302 M256 250 L282 232 M256 272 L282 254 M256 250 L230 232 M256 272 L230 254" stroke="#ffffff" stroke-width="8" stroke-linecap="round" stroke-linejoin="round" />
</svg>
